<svg id="files-and-folders" xmlns="http://www.w3.org/2000/svg" width="16.931" height="16.931" viewBox="0 0 16.931 16.931">
  <g id="Group_5608" data-name="Group 5608" transform="translate(2.822)">
    <g id="Group_5607" data-name="Group 5607">
      <path id="Path_5838" data-name="Path 5838" d="M99.416,4.8a.352.352,0,0,0-.076-.114L94.754.1a.35.35,0,0,0-.249-.1H87.1a1.766,1.766,0,0,0-1.764,1.764V6a.353.353,0,1,0,.705,0V1.764A1.059,1.059,0,0,1,87.1.705h7.261l3.88,3.88H95.916a1.059,1.059,0,0,1-1.058-1.058V2.469a.353.353,0,1,0-.705,0V3.527a1.766,1.766,0,0,0,1.764,1.764h2.822v9.877a1.059,1.059,0,0,1-1.058,1.058h-6a.353.353,0,1,0,0,.705h6a1.766,1.766,0,0,0,1.764-1.764V4.938A.348.348,0,0,0,99.416,4.8Z" transform="translate(-85.334 0)" fill="#0032a1"/>
    </g>
  </g>
  <g id="Group_5610" data-name="Group 5610" transform="translate(0 7.055)">
    <g id="Group_5609" data-name="Group 5609">
      <path id="Path_5839" data-name="Path 5839" d="M4.938,213.333a4.938,4.938,0,1,0,4.938,4.938A4.944,4.944,0,0,0,4.938,213.333Zm0,9.171a4.233,4.233,0,1,1,4.233-4.233A4.238,4.238,0,0,1,4.938,222.5Z" transform="translate(0 -213.333)" fill="#0032a1"/>
    </g>
  </g>
  <g id="Group_5612" data-name="Group 5612" transform="translate(4.938 2.116)">
    <g id="Group_5611" data-name="Group 5611">
      <path id="Path_5840" data-name="Path 5840" d="M150.744,64a1.411,1.411,0,1,0,1.411,1.411A1.412,1.412,0,0,0,150.744,64Zm0,2.116a.705.705,0,1,1,.705-.705A.706.706,0,0,1,150.744,66.116Z" transform="translate(-149.333 -64)" fill="#8ab7e9"/>
    </g>
  </g>
  <g id="Group_5614" data-name="Group 5614" transform="translate(10.935 9.171)">
    <g id="Group_5613" data-name="Group 5613">
      <path id="Path_5841" data-name="Path 5841" d="M334.193,277.333h-3.175a.353.353,0,1,0,0,.706h3.175a.353.353,0,1,0,0-.706Z" transform="translate(-330.666 -277.333)" fill="#0032a1"/>
    </g>
  </g>
  <g id="Group_5616" data-name="Group 5616" transform="translate(10.935 11.287)">
    <g id="Group_5615" data-name="Group 5615">
      <path id="Path_5842" data-name="Path 5842" d="M334.193,341.333h-3.175a.353.353,0,1,0,0,.705h3.175a.353.353,0,1,0,0-.705Z" transform="translate(-330.666 -341.333)" fill="#0032a1"/>
    </g>
  </g>
  <g id="Group_5618" data-name="Group 5618" transform="translate(10.935 13.404)">
    <g id="Group_5617" data-name="Group 5617">
      <path id="Path_5843" data-name="Path 5843" d="M332.783,405.333H331.02a.353.353,0,1,0,0,.706h1.764a.353.353,0,1,0,0-.706Z" transform="translate(-330.667 -405.333)" fill="#0032a1"/>
    </g>
  </g>
  <g id="Group_5620" data-name="Group 5620" transform="translate(3.175 8.818)">
    <g id="Group_5619" data-name="Group 5619">
      <path id="Path_5844" data-name="Path 5844" d="M99.175,269.135a.353.353,0,0,0,.353-.353v-.353a1.059,1.059,0,0,0-1.058-1.058h-.353v-.353a.353.353,0,0,0-.705,0v.353h-.353A1.059,1.059,0,0,0,96,268.43v.705a1.059,1.059,0,0,0,1.058,1.058h1.411a.353.353,0,0,1,.353.353v.705a.353.353,0,0,1-.353.353H97.058a.353.353,0,0,1-.353-.353V270.9a.353.353,0,1,0-.705,0v.353a1.059,1.059,0,0,0,1.058,1.058h.353v.353a.353.353,0,1,0,.705,0v-.353h.353a1.059,1.059,0,0,0,1.058-1.058v-.705a1.059,1.059,0,0,0-1.058-1.058H97.058a.353.353,0,0,1-.353-.353v-.705a.353.353,0,0,1,.353-.353h1.411a.353.353,0,0,1,.353.353v.353A.353.353,0,0,0,99.175,269.135Z" transform="translate(-96 -266.666)" fill="#8ab7e9"/>
    </g>
  </g>
</svg>
