<svg xmlns="http://www.w3.org/2000/svg" xmlns:xlink="http://www.w3.org/1999/xlink" width="20.057" height="20.057" viewBox="0 0 20.057 20.057">
  <defs>
    <clipPath id="clip-path">
      <path id="path3312" d="M0-682.665H20.057v20.057H0Z" transform="translate(0 682.665)" fill="#0033a1"/>
    </clipPath>
  </defs>
  <g id="g3306" transform="translate(0 682.665)">
    <g id="g3308" transform="translate(0 -682.665)">
      <g id="g3310" clip-path="url(#clip-path)">
        <g id="g3316" transform="translate(12.878 1.79)">
          <path id="path3318" d="M0-26.284l1.676-.7a1.277,1.277,0,0,1,.979,0l3.49,1.454a1.18,1.18,0,0,1,.74,1.082v12.565A1.205,1.205,0,0,1,5.656-10.7H5.179" transform="translate(0 27.08)" fill="none" stroke="#0033a1" stroke-linecap="round" stroke-linejoin="round" stroke-width="1"/>
        </g>
        <g id="g3320" transform="translate(10.324 3.119)">
          <path id="path3322" d="M0-235.575V-241.4a1.18,1.18,0,0,1,.74-1.082l.534-.222" transform="translate(0 242.706)" fill="none" stroke="#0033a1" stroke-linecap="round" stroke-linejoin="round" stroke-width="1"/>
        </g>
        <g id="g3324" transform="translate(10.937 18.009)">
          <path id="path3326" d="M-192.932-5.266h-5.223a1.262,1.262,0,0,1-.616-.159h0" transform="translate(198.771 5.425)" fill="none" stroke="#0033a1" stroke-linecap="round" stroke-linejoin="round" stroke-width="1"/>
        </g>
        <g id="g3328" transform="translate(14.158 3.729)">
          <path id="path3330" d="M-27.283-54.567a.826.826,0,0,1-.826-.826.826.826,0,0,1,.826-.826.826.826,0,0,1,.826.826A.826.826,0,0,1-27.283-54.567Z" transform="translate(28.109 56.219)" fill="none" stroke="#0033a1" stroke-linecap="round" stroke-linejoin="round" stroke-width="1"/>
        </g>
        <g id="g3332" transform="translate(13.844 10.86)">
          <path id="path3334" d="M-70.077-23.212h0a.7.7,0,0,0-.7-.7H-71.5a.7.7,0,0,0-.7.7v.582a.574.574,0,0,0,.4.546l1.327.431a.575.575,0,0,1,.4.546v.407a.8.8,0,0,1-.8.8H-71.4a.8.8,0,0,1-.8-.8" transform="translate(72.198 23.915)" fill="none" stroke="#8ab7e9" stroke-linecap="round" stroke-linejoin="round" stroke-width="1"/>
        </g>
        <g id="g3336" transform="translate(14.904 9.917)">
          <path id="path3338" d="M0,0V.943" transform="translate(0)" fill="none" stroke="#8ab7e9" stroke-linecap="round" stroke-linejoin="round" stroke-width="1"/>
        </g>
        <g id="g3340" transform="translate(14.904 14.873)">
          <path id="path3342" d="M0,0V.943" transform="translate(0)" fill="none" stroke="#8ab7e9" stroke-linecap="round" stroke-linejoin="round" stroke-width="1"/>
        </g>
        <g id="g3344" transform="translate(0.294 9.934)">
          <path id="path3346" d="M-93.7-75.722v-2.292h-2.836v8.333H-93.7v-4.76" transform="translate(96.533 78.014)" fill="none" stroke="#0033a1" stroke-linecap="round" stroke-linejoin="round" stroke-width="1"/>
        </g>
        <g id="g3348" transform="translate(10.891 14.13)">
          <path id="path3350" d="M-12.993,0a.97.97,0,0,1,.97.97.967.967,0,0,1-.284.686.966.966,0,0,1-.686.284h-.393" transform="translate(13.387)" fill="none" stroke="#0033a1" stroke-linecap="round" stroke-linejoin="round" stroke-width="1"/>
        </g>
        <g id="g3352" transform="translate(10.729 12.19)">
          <path id="path3354" d="M0-64.1H.878a.967.967,0,0,0,.686-.284.968.968,0,0,0,.284-.686.97.97,0,0,0-.97-.97" transform="translate(0 66.04)" fill="none" stroke="#0033a1" stroke-linecap="round" stroke-linejoin="round" stroke-width="1"/>
        </g>
        <g id="g3356" transform="translate(3.13 5.235)">
          <path id="path3358" d="M-251.028-229.777h1.207a.968.968,0,0,0,.686-.284.967.967,0,0,0,.284-.686.97.97,0,0,0-.97-.97h-3.548a6.479,6.479,0,0,0,.031-4.413.847.847,0,0,0-.31-.436.859.859,0,0,0-.509-.166.857.857,0,0,0-.856.9c.147,2.833-1.955,3.011-3.614,4.906v1.184" transform="translate(258.626 236.733)" fill="none" stroke="#0033a1" stroke-linecap="round" stroke-linejoin="round" stroke-width="1"/>
        </g>
        <g id="g3360" transform="translate(3.13 13.507)">
          <path id="path3362" d="M0,0V3.7a3.075,3.075,0,0,1,1.834.552,1.191,1.191,0,0,0,.724.248h5.25a.97.97,0,0,0-.047-1.939H7.276" fill="none" stroke="#0033a1" stroke-linecap="round" stroke-linejoin="round" stroke-width="1"/>
        </g>
        <g id="g3364" transform="translate(3.13 13.507)">
          <path id="path3366" d="M0-126.012v-3.814" transform="translate(0 129.826)" fill="none" stroke="#0033a1" stroke-linecap="round" stroke-linejoin="round" stroke-width="1"/>
        </g>
        <g id="g3368" transform="translate(3.13 11.152)">
          <path id="path3370" d="M0-35.486V-36.56" transform="translate(0 36.56)" fill="none" stroke="#0033a1" stroke-linecap="round" stroke-linejoin="round" stroke-width="1"/>
        </g>
      </g>
    </g>
  </g>
</svg>
