<svg xmlns="http://www.w3.org/2000/svg" width="14.727" height="13.745" viewBox="0 0 14.727 13.745">
  <g id="Group_5718" data-name="Group 5718" transform="translate(-26.336 -445.511)">
    <path id="Shape" d="M6.07,11.321A5.882,5.882,0,0,1,0,5.66,5.882,5.882,0,0,1,6.07,0a5.882,5.882,0,0,1,6.069,5.66A5.882,5.882,0,0,1,6.07,11.321Zm0-10.248A4.767,4.767,0,0,0,1.15,5.66,4.767,4.767,0,0,0,6.07,10.248,4.767,4.767,0,0,0,10.988,5.66,4.767,4.767,0,0,0,6.07,1.073Z" transform="translate(26.336 445.511)" fill="#0033a1"/>
    <path id="Shape-2" data-name="Shape" d="M11.1,11.325a.591.591,0,0,1-.406-.157l-2.574-2.4a.511.511,0,0,1,0-.759.606.606,0,0,1,.813,0l2.575,2.4a.512.512,0,0,1,0,.759A.592.592,0,0,1,11.1,11.325ZM3.049,6.438A.557.557,0,0,1,2.474,5.9V5.434A2.5,2.5,0,0,1,1.3,4.808l-.427.239a.6.6,0,0,1-.3.077.588.588,0,0,1-.494-.261.5.5,0,0,1-.067-.4.537.537,0,0,1,.264-.339l.432-.241a2.132,2.132,0,0,1,0-1.333l-.432-.24a.539.539,0,0,1-.264-.34.5.5,0,0,1,.067-.4.589.589,0,0,1,.494-.261.606.606,0,0,1,.295.076l.427.239A2.5,2.5,0,0,1,2.474,1V.536A.557.557,0,0,1,3.049,0a.557.557,0,0,1,.575.536V1a2.509,2.509,0,0,1,1.154.607l.391-.219a.606.606,0,0,1,.295-.076.581.581,0,0,1,.494.261.5.5,0,0,1,.067.4.539.539,0,0,1-.264.34l-.383.214a2.121,2.121,0,0,1,0,1.387l.383.214a.537.537,0,0,1,.264.339.5.5,0,0,1-.067.4.58.58,0,0,1-.494.261.6.6,0,0,1-.3-.077l-.391-.218a2.481,2.481,0,0,1-1.154.606V5.9A.557.557,0,0,1,3.049,6.438Zm0-4.426A1.254,1.254,0,0,0,1.755,3.218,1.255,1.255,0,0,0,3.049,4.426,1.254,1.254,0,0,0,4.343,3.218,1.254,1.254,0,0,0,3.049,2.012Z" transform="translate(29.385 447.931)" fill="#8ab7e9"/>
  </g>
</svg>
