<svg xmlns="http://www.w3.org/2000/svg" width="16.691" height="13.745" viewBox="0 0 16.691 13.745">
  <g id="Group_5719" data-name="Group 5719" transform="translate(-25.354 -515.142)">
    <path id="Shape" d="M11.475,13.745H5.216a.574.574,0,1,1,0-1.136h6.259a.574.574,0,1,1,0,1.136Zm1.3-2.273H3.911A3.689,3.689,0,0,1,0,8.066V3.408A3.69,3.69,0,0,1,3.912,0h6.455a.615.615,0,0,1,.652.568.615.615,0,0,1-.652.568H3.912A2.46,2.46,0,0,0,1.3,3.408V8.066a2.459,2.459,0,0,0,2.607,2.271h8.868a2.46,2.46,0,0,0,2.608-2.272V5.51a.658.658,0,0,1,1.3,0V8.066A3.69,3.69,0,0,1,12.779,11.473Z" transform="translate(25.354 515.142)" fill="#0033a1"/>
    <path id="Shape-2" data-name="Shape" d="M1.037,5.481H.652A.615.615,0,0,1,0,4.913a.615.615,0,0,1,.652-.567h.385A8.737,8.737,0,0,0,6.955,2.107a.7.7,0,0,1,.472-.175.7.7,0,0,1,.45.157.535.535,0,0,1,.2.4.525.525,0,0,1-.181.4A10.128,10.128,0,0,1,1.037,5.481ZM9.513,3.806a.615.615,0,0,1-.652-.568v-1.5a.651.651,0,0,0-.69-.6H6.449A.615.615,0,0,1,5.8.568.615.615,0,0,1,6.449,0H8.171a1.882,1.882,0,0,1,1.994,1.738v1.5A.615.615,0,0,1,9.513,3.806Z" transform="translate(31.88 515.142)" fill="#8ab7e9"/>
  </g>
</svg>
