<svg xmlns="http://www.w3.org/2000/svg" width="18.538" height="15.72" viewBox="0 0 18.538 15.72">
  <g id="list_2_" data-name="list (2)" transform="translate(-3.5 -8)">
    <path id="Path_3779" data-name="Path 3779" d="M5.723,11.945a1.723,1.723,0,1,1,1.723-1.723,1.723,1.723,0,0,1-1.723,1.723Zm0-2.819a1.1,1.1,0,1,0,1.1,1.1A1.1,1.1,0,0,0,5.723,9.126Z" fill="#fff" stroke="#fff" stroke-width="1"/>
    <path id="Path_3780" data-name="Path 3780" d="M5.723,29.945a1.723,1.723,0,1,1,1.723-1.723,1.723,1.723,0,0,1-1.723,1.723Zm0-2.819a1.1,1.1,0,1,0,1.1,1.1A1.1,1.1,0,0,0,5.723,27.126Z" transform="translate(0 -12.363)" fill="#fff" stroke="#fff" stroke-width="1"/>
    <path id="Path_3781" data-name="Path 3781" d="M5.723,47.945a1.723,1.723,0,1,1,1.723-1.723,1.723,1.723,0,0,1-1.723,1.723Zm0-2.819a1.1,1.1,0,1,0,1.1,1.1A1.1,1.1,0,0,0,5.723,45.126Z" transform="translate(0 -24.725)" fill="#fff" stroke="#fff" stroke-width="1"/>
    <path id="Path_3782" data-name="Path 3782" d="M33.588,13.626H22.313a.313.313,0,1,1,0-.626H33.588a.313.313,0,1,1,0,.626Z" transform="translate(-12.363 -3.091)" fill="#fff" stroke="#fff" stroke-width="1"/>
    <path id="Path_3783" data-name="Path 3783" d="M33.588,31.626H22.313a.313.313,0,0,1,0-.626H33.588a.313.313,0,0,1,0,.626Z" transform="translate(-12.363 -15.453)" fill="#fff" stroke="#fff" stroke-width="1"/>
    <path id="Path_3784" data-name="Path 3784" d="M33.588,49.626H22.313a.313.313,0,1,1,0-.626H33.588a.313.313,0,1,1,0,.626Z" transform="translate(-12.363 -27.816)" fill="#fff" stroke="#fff" stroke-width="1"/>
  </g>
</svg>
