<svg xmlns="http://www.w3.org/2000/svg" width="15.748" height="19.008" viewBox="0 0 15.748 19.008">
  <g id="quick_pricing" data-name="quick pricing" transform="translate(-51.6 -7.1)">
    <g id="Group_5600" data-name="Group 5600" transform="translate(52 7.5)">
      <line id="Line_234" data-name="Line 234" x1="13.189" transform="translate(0.098 3.199)" fill="none" stroke="#0033a1" stroke-linecap="round" stroke-linejoin="round" stroke-width="0.8"/>
      <path id="Path_5812" data-name="Path 5812" d="M379.144,7.5h.764a.659.659,0,0,1,.659.659v4.207" transform="translate(-367.159 -7.5)" fill="none" stroke="#0033a1" stroke-linecap="round" stroke-linejoin="round" stroke-width="0.8"/>
      <path id="Path_5813" data-name="Path 5813" d="M52,22.112V8.159a.659.659,0,0,1,.659-.659h9.9" transform="translate(-52 -7.5)" fill="none" stroke="#0033a1" stroke-linecap="round" stroke-linejoin="round" stroke-width="0.8"/>
      <path id="Path_5814" data-name="Path 5814" d="M65.409,440.911v1.435a.659.659,0,0,1-.659.659H52.659a.659.659,0,0,1-.659-.659v-1.679" transform="translate(-52 -424.798)" fill="none" stroke="#0033a1" stroke-linecap="round" stroke-linejoin="round" stroke-width="0.8"/>
      <line id="Line_235" data-name="Line 235" y2="2.467" transform="translate(13.409 9.287)" fill="none" stroke="#0033a1" stroke-linecap="round" stroke-linejoin="round" stroke-width="0.8"/>
      <circle id="Ellipse_2" data-name="Ellipse 2" cx="0.55" cy="0.55" r="0.55" transform="translate(1.48 1.05)" fill="none" stroke="#8ab7e9" stroke-linecap="round" stroke-linejoin="round" stroke-width="0.8"/>
      <circle id="Ellipse_3" data-name="Ellipse 3" cx="0.55" cy="0.55" r="0.55" transform="translate(3.77 1.05)" fill="none" stroke="#8ab7e9" stroke-linecap="round" stroke-linejoin="round" stroke-width="0.8"/>
      <circle id="Ellipse_4" data-name="Ellipse 4" cx="0.55" cy="0.55" r="0.55" transform="translate(6.059 1.05)" fill="none" stroke="#8ab7e9" stroke-linecap="round" stroke-linejoin="round" stroke-width="0.8"/>
      <g id="Group_5594" data-name="Group 5594" transform="translate(3.523 5.583)">
        <path id="Path_5815" data-name="Path 5815" d="M149.262,168.988a.756.756,0,0,0-.658-.094.551.551,0,0,0-.15.909,2.14,2.14,0,0,0,.617.275.634.634,0,0,1-.267,1.222.939.939,0,0,1-.643-.173" transform="translate(-148.162 -168.529)" fill="none" stroke="#8ab7e9" stroke-linecap="round" stroke-linejoin="round" stroke-width="0.8"/>
        <line id="Line_236" data-name="Line 236" y2="0.308" transform="translate(0.643 2.818)" fill="none" stroke="#8ab7e9" stroke-linecap="round" stroke-linejoin="round" stroke-width="0.8"/>
        <line id="Line_237" data-name="Line 237" y2="0.306" transform="translate(0.643)" fill="none" stroke="#8ab7e9" stroke-linecap="round" stroke-linejoin="round" stroke-width="0.8"/>
      </g>
      <circle id="Ellipse_5" data-name="Ellipse 5" cx="2.674" cy="2.674" r="2.674" transform="translate(1.507 4.472)" fill="none" stroke="#0033a1" stroke-linecap="round" stroke-linejoin="round" stroke-width="0.8"/>
      <g id="Group_5595" data-name="Group 5595" transform="translate(3.523 12.376)">
        <path id="Path_5816" data-name="Path 5816" d="M149.262,354.4a.756.756,0,0,0-.658-.094.551.551,0,0,0-.15.909,2.141,2.141,0,0,0,.617.275.634.634,0,0,1-.267,1.222.939.939,0,0,1-.643-.173" transform="translate(-148.162 -353.94)" fill="none" stroke="#8ab7e9" stroke-linecap="round" stroke-linejoin="round" stroke-width="0.8"/>
        <line id="Line_238" data-name="Line 238" y2="0.308" transform="translate(0.643 2.818)" fill="none" stroke="#8ab7e9" stroke-linecap="round" stroke-linejoin="round" stroke-width="0.8"/>
        <line id="Line_239" data-name="Line 239" y2="0.306" transform="translate(0.643)" fill="none" stroke="#8ab7e9" stroke-linecap="round" stroke-linejoin="round" stroke-width="0.8"/>
      </g>
      <circle id="Ellipse_6" data-name="Ellipse 6" cx="2.674" cy="2.674" r="2.674" transform="translate(1.507 11.264)" fill="none" stroke="#0033a1" stroke-linecap="round" stroke-linejoin="round" stroke-width="0.8"/>
      <path id="Path_5817" data-name="Path 5817" d="M286.338,149.177h-6.082a.256.256,0,0,1-.256-.256v-3.664a.256.256,0,0,1,.256-.256h6.082a.256.256,0,0,1,.256.256v3.664A.256.256,0,0,1,286.338,149.177Z" transform="translate(-271.647 -139.963)" fill="none" stroke="#0033a1" stroke-linecap="round" stroke-linejoin="round" stroke-width="0.8"/>
      <path id="Path_5818" data-name="Path 5818" d="M286.338,334.781h-6.082a.257.257,0,0,1-.256-.257V330.86a.256.256,0,0,1,.256-.256h6.082a.256.256,0,0,1,.256.256v3.664A.256.256,0,0,1,286.338,334.781Z" transform="translate(-271.647 -318.767)" fill="none" stroke="#0033a1" stroke-linecap="round" stroke-linejoin="round" stroke-width="0.8"/>
      <g id="Group_5597" data-name="Group 5597" transform="translate(9.745 6.564)">
        <line id="Line_240" data-name="Line 240" x2="2.076" fill="none" stroke="#0033a1" stroke-linecap="round" stroke-linejoin="round" stroke-width="0.8"/>
        <g id="Group_5596" data-name="Group 5596" transform="translate(0 1.136)">
          <line id="Line_241" data-name="Line 241" x2="3.664" fill="none" stroke="#0033a1" stroke-linecap="round" stroke-linejoin="round" stroke-width="0.8"/>
        </g>
      </g>
      <g id="Group_5599" data-name="Group 5599" transform="translate(9.745 13.302)">
        <line id="Line_242" data-name="Line 242" x2="2.076" fill="none" stroke="#0033a1" stroke-linecap="round" stroke-linejoin="round" stroke-width="0.8"/>
        <g id="Group_5598" data-name="Group 5598" transform="translate(0 1.136)">
          <line id="Line_243" data-name="Line 243" x2="3.664" fill="none" stroke="#0033a1" stroke-linecap="round" stroke-linejoin="round" stroke-width="0.8"/>
        </g>
      </g>
    </g>
  </g>
</svg>
