<svg xmlns="http://www.w3.org/2000/svg" width="15.353" height="12.915" viewBox="0 0 15.353 12.915">
  <g id="reload" transform="translate(-3 -5.063)">
    <path id="Path_5830" data-name="Path 5830" d="M3.59,16.9a.588.588,0,0,0,.468-.23l.257-.334a6.456,6.456,0,0,0,11.742,2.495.591.591,0,0,0-.985-.652,5.273,5.273,0,0,1-9.606-2.146l.505.389a.591.591,0,0,0,.72-.936l-1.4-1.078c-.293-.226-.711-.353-.977-.006L3.123,15.954a.59.59,0,0,0,.467.95Z" transform="translate(0 -3.738)"/>
    <path id="Path_5831" data-name="Path 5831" d="M6.986,8.764A.592.592,0,0,0,7.8,8.6a5.273,5.273,0,0,1,9.606,2.146l-.505-.389a.591.591,0,0,0-.72.936l1.4,1.078c.3.23.707.358.977.006l1.193-1.549a.59.59,0,1,0-.935-.72l-.257.334A6.457,6.457,0,0,0,6.82,7.945a.591.591,0,0,0,.166.819Z" transform="translate(-1.524)"/>
  </g>
</svg>
